<?xml version="1.0" ?><!DOCTYPE svg  PUBLIC '-//W3C//DTD SVG 1.1//EN'  'http://www.w3.org/Graphics/SVG/1.1/DTD/svg11.dtd'><svg enable-background="new 0 0 24 24" height="30px" id="Layer_1" version="1.1" viewBox="0 0 24 24" width="30px" xml:space="preserve" xmlns="http://www.w3.org/2000/svg" xmlns:xlink="http://www.w3.org/1999/xlink"><g id="LinkedIn_1_"><g><path d="M5.8,22.5H1.6c-0.3,0-0.5-0.2-0.5-0.5V8.4c0-0.3,0.2-0.5,0.5-0.5h4.3c0.3,0,0.5,0.2,0.5,0.5V22    C6.3,22.3,6.1,22.5,5.8,22.5z M2.1,21.5h3.3V8.9H2.1V21.5z"/></g><g><path d="M5.8,22.5H1.6c-0.3,0-0.5-0.2-0.5-0.5V8.4c0-0.3,0.2-0.5,0.5-0.5h4.3c0.3,0,0.5,0.2,0.5,0.5V22    C6.3,22.3,6.1,22.5,5.8,22.5z M2.1,21.5h3.3V8.9H2.1V21.5z"/></g><g><path d="M5.8,22.5H1.6c-0.3,0-0.5-0.2-0.5-0.5V8.4c0-0.3,0.2-0.5,0.5-0.5h4.3c0.3,0,0.5,0.2,0.5,0.5V22    C6.3,22.3,6.1,22.5,5.8,22.5z M2.1,21.5h3.3V8.9H2.1V21.5z"/></g><g><path d="M23,22.5h-4.9c-0.3,0-0.5-0.2-0.5-0.5v-5.8c0-1.2-0.3-2.6-1.9-2.6c-1.1,0-1.6,0.7-1.9,1.4c-0.1,0.2-0.1,0.5-0.1,0.8l0,6.3    c0,0.3-0.2,0.5-0.5,0.5H8.5c-0.1,0-0.3-0.1-0.4-0.1S8,22.1,8,22C8,21.9,8,9.5,8,8.4c0-0.1,0-0.3,0.1-0.4C8.2,8,8.3,7.9,8.5,7.9    h4.8c0.3,0,0.5,0.2,0.5,0.5v0.6c0.8-0.7,2.1-1.3,3.8-1.3c3.7,0,5.9,2.6,5.9,6.7V22C23.5,22.3,23.3,22.5,23,22.5z M18.6,21.5h3.9    v-7.1c0-3.5-1.8-5.7-4.9-5.7c-2.3,0-3.6,1.2-3.8,1.9c-0.1,0.2-0.3,0.4-0.6,0.3c-0.2,0-0.4-0.2-0.4-0.5V8.9H9c0,2.3,0,10.4,0,12.6    h3.8l0-5.8c0-0.4,0-0.8,0.1-1.2c0.5-1.3,1.5-2,2.8-2c1.8,0,2.9,1.3,2.9,3.6V21.5z"/></g><g><path d="M23,22.5h-4.9c-0.3,0-0.5-0.2-0.5-0.5v-5.8c0-1.2-0.3-2.6-1.9-2.6c-1.1,0-1.6,0.7-1.9,1.4c-0.1,0.2-0.1,0.5-0.1,0.8l0,6.3    c0,0.3-0.2,0.5-0.5,0.5H8.5c-0.1,0-0.3-0.1-0.4-0.1S8,22.1,8,22C8,21.9,8,9.5,8,8.4c0-0.1,0-0.3,0.1-0.4C8.2,8,8.3,7.9,8.5,7.9    h4.8c0.3,0,0.5,0.2,0.5,0.5v0.6c0.8-0.7,2.1-1.3,3.8-1.3c3.7,0,5.9,2.6,5.9,6.7V22C23.5,22.3,23.3,22.5,23,22.5z M18.6,21.5h3.9    v-7.1c0-3.5-1.8-5.7-4.9-5.7c-2.3,0-3.6,1.2-3.8,1.9c-0.1,0.2-0.3,0.4-0.6,0.3c-0.2,0-0.4-0.2-0.4-0.5V8.9H9c0,2.3,0,10.4,0,12.6    h3.8l0-5.8c0-0.4,0-0.8,0.1-1.2c0.5-1.3,1.5-2,2.8-2c1.8,0,2.9,1.3,2.9,3.6V21.5z"/></g><g><path d="M3.6,7.2L3.6,7.2C1.8,7.2,0.5,6,0.5,4.4c0-1.7,1.3-2.9,3.1-2.9c1.8,0,3,1.2,3.1,2.8C6.7,6,5.4,7.2,3.6,7.2z M3.6,2.5    c-1.3,0-2.1,0.7-2.1,1.9c0,1.1,0.8,1.9,2.1,1.9h0c1.3,0,2.1-0.7,2.1-1.9C5.7,3.2,4.9,2.5,3.6,2.5z"/></g></g></svg>